<?xml version="1.0" encoding="UTF-8" standalone="no"?>
<svg width="297px" height="293px" viewBox="0 0 297 293" version="1.1" xmlns="http://www.w3.org/2000/svg" xmlns:xlink="http://www.w3.org/1999/xlink">
    <!-- Generator: Sketch 39.1 (31720) - http://www.bohemiancoding.com/sketch -->
    <title>header_bg</title>
    <desc>Created with Sketch.</desc>
    <defs>
        <path d="M29.1666667,0 L17.75,0 C17.5416667,0 17.3333333,0.0833333333 17.1666667,0.25 L0.25,17.125 C-0.0833333333,17.4583333 -0.0833333333,17.9583333 0.25,18.2916667 L11.6666667,29.75 C11.8333333,29.9166667 12.0416667,30 12.25,30 C12.4583333,30 12.6666667,29.9166667 12.8333333,29.75 L29.7083333,12.875 C29.875,12.7083333 29.9583333,12.5 29.9583333,12.2916667 L29.9583333,0.833333333 C30,0.375 29.625,0 29.1666667,0 L29.1666667,0 Z M28.3333333,11.9166667 L12.2916667,28 L2,17.7083333 L18.0833333,1.66666667 L28.3333333,1.66666667 L28.3333333,11.9166667 L28.3333333,11.9166667 Z M25.2916667,4.70833333 C24.6666667,4.08333333 23.7916667,3.75 22.9166667,3.75 C22.0416667,3.75 21.2083333,4.08333333 20.5416667,4.70833333 C19.9166667,5.33333333 19.5833333,6.20833333 19.5833333,7.08333333 C19.5833333,7.95833333 19.9166667,8.79166667 20.5416667,9.45833333 C21.1666667,10.0833333 22,10.4166667 22.9166667,10.4166667 C23.7916667,10.4166667 24.625,10.0833333 25.2916667,9.45833333 C25.9166667,8.83333333 26.25,8 26.25,7.08333333 C26.25,6.16666667 25.9166667,5.33333333 25.2916667,4.70833333 L25.2916667,4.70833333 Z M24.0833333,8.25 C23.4583333,8.875 22.3333333,8.875 21.7083333,8.25 C21.4166667,7.95833333 21.25,7.54166667 21.25,7.08333333 C21.25,6.625 21.4166667,6.20833333 21.75,5.91666667 C22.0833333,5.58333333 22.5,5.41666667 22.9166667,5.41666667 C23.375,5.41666667 23.7916667,5.58333333 24.0833333,5.91666667 C24.375,6.25 24.5833333,6.66666667 24.5833333,7.08333333 C24.5833333,7.5 24.4166667,7.95833333 24.0833333,8.25 L24.0833333,8.25 Z" id="path-1"></path>
        <mask id="mask-2" maskContentUnits="userSpaceOnUse" maskUnits="objectBoundingBox" x="0" y="0" width="29.9615013" height="30" fill="white">
            <use xlink:href="#path-1"></use>
        </mask>
        <rect id="path-3" x="0" y="8" width="15" height="14" rx="2"></rect>
        <mask id="mask-4" maskContentUnits="userSpaceOnUse" maskUnits="objectBoundingBox" x="0" y="0" width="15" height="14" fill="white">
            <use xlink:href="#path-3"></use>
        </mask>
        <rect id="path-5" x="-1.42108547e-14" y="7.10542736e-14" width="30" height="22" rx="3"></rect>
        <mask id="mask-6" maskContentUnits="userSpaceOnUse" maskUnits="objectBoundingBox" x="0" y="0" width="30" height="22" fill="white">
            <use xlink:href="#path-5"></use>
        </mask>
        <rect id="path-7" x="-1.13686838e-13" y="1.42108547e-13" width="38.6737869" height="28.360777" rx="3"></rect>
        <mask id="mask-8" maskContentUnits="userSpaceOnUse" maskUnits="objectBoundingBox" x="0" y="0" width="38.6737869" height="28.360777" fill="white">
            <use xlink:href="#path-7"></use>
        </mask>
        <path d="M26.7142857,2.375 L30.3571429,2.375 C32.3690373,2.375 34,3.9749408 34,5.93752274 L34,34.4374773 C34,36.4050042 32.3601093,38 30.3614044,38 L3.63859558,38 C1.62905473,38 0,36.4000592 0,34.4374773 L0,5.93752274 L0,5.93752274 C0,3.96999576 1.63917585,2.375 3.6382989,2.375 L7.72925339,2.375" id="path-9"></path>
        <mask id="mask-10" maskContentUnits="userSpaceOnUse" maskUnits="objectBoundingBox" x="0" y="0" width="34" height="35.625" fill="white">
            <use xlink:href="#path-9"></use>
        </mask>
        <path d="M26.7142857,4.75 L31.5714286,4.75 L31.5714286,35.625 L4.43167802,35.625 C3.3253928,35.625 2.42857143,34.7342685 2.42857143,33.6229944 L2.42857143,4.75 L7.28571429,4.75" id="path-11"></path>
        <mask id="mask-12" maskContentUnits="userSpaceOnUse" maskUnits="objectBoundingBox" x="0" y="0" width="29.1428571" height="30.875" fill="white">
            <use xlink:href="#path-11"></use>
        </mask>
        <path d="M20.047869,2.375 L23.0726956,2.375 C23.7426273,2.375 24.2857143,2.9014819 24.2857143,3.57362556 L24.2857143,5.92637444 C24.2857143,6.58835706 23.7322903,7.125 23.0684253,7.125 L10.9315747,7.125 C10.2592846,7.125 9.71428571,6.5985181 9.71428571,5.92637444 L9.71428571,3.57362556 C9.71428571,2.91164294 10.2543072,2.375 10.9276025,2.375 L13.9764404,2.375" id="path-13"></path>
        <mask id="mask-14" maskContentUnits="userSpaceOnUse" maskUnits="objectBoundingBox" x="0" y="0" width="14.5714286" height="4.75" fill="white">
            <use xlink:href="#path-13"></use>
        </mask>
        <rect id="path-15" x="3.77777778" y="0" width="30.2222222" height="36.25" rx="3"></rect>
        <mask id="mask-16" maskContentUnits="userSpaceOnUse" maskUnits="objectBoundingBox" x="0" y="0" width="30.2222222" height="36.25" fill="white">
            <use xlink:href="#path-15"></use>
        </mask>
    </defs>
    <g id="v5" stroke="none" stroke-width="1" fill="none" fill-rule="evenodd" opacity="0.0399999991">
        <g id="homepage-redesign---v5" transform="translate(0.000000, -82.000000)">
            <g id="header">
                <g id="header_bg" transform="translate(-14.000000, 80.000000)">
                    <g id="Page-1" transform="translate(185.000000, 60.000000) rotate(17.000000) translate(-185.000000, -60.000000) translate(167.000000, 36.000000)">
                        <g id="Group-19" transform="translate(0.000000, 0.109386)">
                            <path d="M34.9723238,5.15557459 L34.9723238,44.4008182 C34.9723238,45.3530892 34.2018612,46.1229481 33.2588656,46.1229481 L6.99051762,46.1229481 L6.99051762,4.5477912 L21.9344383,4.5477912 L21.9344383,16.1369648 C21.9344383,16.2787039 22.096641,16.3597417 22.2081167,16.2787039 L25.3002974,14.1412168 L28.392478,16.2787039 C28.51413,16.3597417 28.6663106,16.2787039 28.6663106,16.1369648 L28.6663106,4.5477912 L34.0496806,4.5477912 C34.2322357,4.68953029 34.4451652,4.77056808 34.6681167,4.77056808 L34.6681167,4.62882899 C34.8506718,4.73004919 34.9723238,4.93264365 34.9723238,5.15557459" id="Fill-1" fill="#FEFEFE"></path>
                            <path d="M34.6681784,4.66166041 L34.6681784,4.86109372 C34.4450727,4.86109372 34.2322974,4.7471937 34.0497423,4.54776039 L34.3741476,4.54776039 C34.4856233,4.54776039 34.5870771,4.59041876 34.6681784,4.66166041" id="Fill-3" fill="#FEFEFE"></path>
                            <path d="M34.6681784,0.14101499 L34.6681784,4.62875196 C34.5870771,4.57806482 34.4856233,4.54771417 34.3741476,4.54771417 L34.0497423,4.54771417 C33.5529581,4.18304414 33.2082004,3.38268046 33.2082004,2.45074593 C33.2082004,1.17432378 33.8671872,0.14101499 34.6681784,0.14101499" id="Fill-5" fill="#FEFEFE"></path>
                            <path d="M33.2082467,2.45074593 C33.2082467,3.38268046 33.5530044,4.18304414 34.0497885,4.54771417 L28.6662643,4.54771417 L21.9343921,4.54771417 L6.99047137,4.54771417 L2.44848899,4.54771417 L2.40793833,4.50719528 L2.40793833,0.242389254 L2.44848899,0.242389254 L34.6682247,0.14101499 C33.8672335,0.14101499 33.2082467,1.17432378 33.2082467,2.45074593" id="Fill-7" fill="#FEFEFE"></path>
                            <path d="M28.6662643,4.54774498 L28.6662643,16.1369186 C28.6662643,16.2788117 28.5142379,16.3598495 28.3925859,16.2788117 L25.3004053,14.1413246 L25.350978,14.1108199 L25.2496784,14.1108199 L25.3004053,14.1413246 L22.2080705,16.2788117 C22.0965947,16.3598495 21.9343921,16.2788117 21.9343921,16.1369186 L21.9343921,4.54774498 L28.6662643,4.54774498 Z" id="Fill-9" fill="#FFFFFF"></path>
                            <polygon id="Fill-11" fill="#FEFEFE" points="25.4551955 14.1108661 25.352383 14.1725928 25.2495705 14.1108661"></polygon>
                            <path d="M2.40790749,4.50722609 L2.40790749,4.54774498 C1.13048458,4.54774498 0.0963656388,3.52460443 0.0963656388,2.24818228 L2.40790749,4.50722609 Z" id="Fill-13" fill="#FEFEFE"></path>
                            <path d="M2.40790749,0.242327628 L2.40790749,4.50728772 L0.0963656388,2.24808984 C0.0963656388,0.971667694 1.13048458,0.242327628 2.40790749,0.242327628" id="Fill-15" fill="#FEFEFE"></path>
                            <path d="M0.0963656388,44.4008028 L0.0963656388,2.24821309 C0.0963656388,3.52463524 1.13048458,4.5477758 2.40790749,4.5477758 L2.40790749,4.5072569 L2.44845815,4.5477758 L6.99044053,4.5477758 L6.99044053,46.1229327 L1.81984581,46.1229327 C0.866828194,46.1229327 0.0963656388,45.3530738 0.0963656388,44.4008028" id="Fill-17" fill="#FEFEFE"></path>
                        </g>
                        <polyline id="Stroke-20" stroke="#000000" stroke-width="1.5" stroke-linecap="round" stroke-linejoin="round" points="2.44847357 0.456512301 34.6682093 0.250338968 34.6783855 0.250338968"></polyline>
                        <path d="M34.6681784,4.73818378 C34.8507335,4.83955804 34.9723855,5.0421525 34.9723855,5.26492938 L34.9723855,44.510173 C34.9723855,45.462444 34.2017687,46.2323029 33.2589273,46.2323029 L6.99042511,46.2323029 L1.8198304,46.2323029 C0.866812775,46.2323029 0.0963502203,45.462444 0.0963502203,44.510173 L0.0963502203,2.35758329" id="Stroke-22" stroke="#000000" stroke-width="1.5" stroke-linecap="round" stroke-linejoin="round"></path>
                        <polyline id="Stroke-24" stroke="#000000" stroke-width="1.5" stroke-linecap="round" stroke-linejoin="round" points="2.44847357 4.65713059 6.99045595 4.65713059 21.9343767 4.65713059 28.6662489 4.65713059 34.0497731 4.65713059"></polyline>
                        <path d="M25.3003282,14.2506332 L22.2081476,16.3881203 C22.0966718,16.4691581 21.934315,16.3881203 21.934315,16.2463812 L21.934315,4.65705355" id="Stroke-26" stroke="#000000" stroke-width="1.5" stroke-linejoin="round"></path>
                        <polygon id="Stroke-28" stroke="#58595B" stroke-width="1.5" stroke-linejoin="round" points="25.3524138 14.2820092 25.2496013 14.2202825 25.4552263 14.2202825"></polygon>
                        <path d="M28.6662643,4.65713059 L28.6662643,16.2463042 C28.6662643,16.3881973 28.5142379,16.4692351 28.3925859,16.3881973 L25.3004053,14.2507102" id="Stroke-30" stroke="#000000" stroke-width="1.5" stroke-linejoin="round"></path>
                        <path d="M6,4.65713059 L6,46.2322875" id="Stroke-32" stroke="#000000" stroke-width="1.5" stroke-linejoin="round"></path>
                        <path d="M2.40790749,4.65713059 C1.13048458,4.65713059 0.0963656388,3.63399003 0.0963656388,2.35756788 C0.0963656388,1.08114574 1.13048458,0.351651606 2.40790749,0.351651606" id="Stroke-34" stroke="#000000" stroke-width="1.5" stroke-linejoin="round"></path>
                        <path d="M34.6681784,4.8799999 C34.4450727,4.8799999 34.2322974,4.79896212 34.0497423,4.65706896 C33.5529581,4.29239893 33.2082004,3.49218932 33.2082004,2.56010072 C33.2082004,1.28367857 33.8671872,0.250369781 34.6681784,0.250369781" id="Stroke-36" stroke="#000000" stroke-width="1.5" stroke-linecap="round" stroke-linejoin="round"></path>
                    </g>
                    <g id="documents" transform="translate(136.000000, 263.000000) rotate(18.000000) translate(-136.000000, -263.000000) translate(113.000000, 240.000000)" stroke="#000000" stroke-width="1.5">
                        <g id="Group" transform="translate(-0.000000, -0.000000)">
                            <g transform="translate(-0.000000, -0.000000)">
                                <polyline id="Shape" points="35.097 43.411 35.097 46 -2.84217094e-14 46 -2.84217094e-14 -5.68434189e-14 35.097 -5.68434189e-14 35.097 23.021"></polyline>
                                <rect id="Rectangle-path" x="5.625" y="7.561" width="9.28" height="12.35"></rect>
                                <path d="M21.353,7 L29.471,7" id="Shape"></path>
                                <path d="M21.353,13 L29.471,13" id="Shape"></path>
                                <path d="M21.353,19 L29.471,19" id="Shape"></path>
                                <path d="M5.625,26 L20.802,26" id="Shape"></path>
                                <path d="M5.625,32 L20.802,32" id="Shape"></path>
                                <path d="M5.625,38 L20.802,38" id="Shape"></path>
                                <ellipse id="Oval" cx="35.706" cy="33.216" rx="10.294" ry="10.218"></ellipse>
                                <polyline id="Shape" points="29.342 31.892 33.446 37.035 42.07 29.397"></polyline>
                            </g>
                        </g>
                    </g>
                    <g id="tag" transform="translate(136.000000, 97.000000) rotate(-90.000000) translate(-136.000000, -97.000000) translate(121.000000, 82.000000)" stroke-width="3" stroke="#000000">
                        <g id="Group">
                            <use id="Shape" mask="url(#mask-2)" xlink:href="#path-1"></use>
                        </g>
                    </g>
                    <g id="Group" transform="translate(220.000000, 191.000000) rotate(-45.000000) translate(-220.000000, -191.000000) translate(194.000000, 159.000000)">
                        <path d="M45.0239292,58.4608187 L1.38362573,58.4608187 C0.710510511,58.4608187 0.18697645,57.9368421 0.18697645,57.2631579 L0.18697645,1.49707602 C0.18697645,0.823391813 0.710510511,0.299415205 1.38362573,0.299415205 L45.0239292,0.299415205 C45.6970444,0.299415205 46.2205785,0.823391813 46.2205785,1.49707602 L46.2205785,57.2631579 C46.2205785,57.9368421 45.6596491,58.4608187 45.0239292,58.4608187 L45.0239292,58.4608187 Z" id="Shape" stroke="#000000" stroke-width="1.5" fill="#FFFFFF"></path>
                        <path d="M12.7143986,29.754386 L35.1889679,29.754386 L35.1889679,29.6421053 C32.2721353,29.6421053 31.337253,27.0596491 31.337253,27.0596491 C30.7763237,26.0116959 30.4023708,24.7391813 29.8414414,23.3169591 C28.9065592,20.8467836 27.3733523,17.3660819 24.2321479,17.3660819 C21.0909436,17.3660819 19.5577367,20.8842105 18.6228544,23.354386 C17.3140193,26.6853801 17.014857,29.2304094 12.7143986,29.754386 L12.7143986,29.754386 Z M18.4732733,41.1695906 L18.5106686,37.6888889 L15.4442548,35.8923977 L12.377841,37.6140351 L12.3404457,41.1321637 L15.4068595,42.928655 L18.4732733,41.2070175 L18.4732733,41.1695906 L18.4732733,41.1695906 Z M51.7924767,28.3321637 L51.6428955,62.0163743 C51.6428955,62.7274854 51.0445709,63.3263158 50.3340604,63.3263158 L5.6092935,62.9520468 C4.8613877,62.9520468 4.30045835,62.3532164 4.30045835,61.6421053 L4.74920183,6.02573099 C4.74920183,5.31461988 5.34752647,4.71578947 6.05803698,4.71578947 L34.4784574,4.94035088 L35.076782,4.94035088 C35.5255255,4.94035088 35.8994784,5.16491228 36.1238502,5.50175439 L36.3108266,18.2643275 C36.3108266,19.2374269 37.0961277,20.0233918 38.0684052,20.0608187 L49.511364,20.1730994 L50.7080133,20.1730994 C51.3437332,20.1730994 51.829872,20.697076 51.829872,21.2959064 L51.7924767,28.3321637 L51.7924767,28.3321637 Z M18.4732733,52.3602339 L18.5106686,48.8046784 L15.4442548,47.0081871 L12.377841,48.7298246 L12.3404457,52.2853801 L15.4068595,54.0818713 L18.4732733,52.3602339 L18.4732733,52.3602339 Z" id="Shape" fill="#FFFFFF"></path>
                        <path d="M36.1612455,5.50175439 L36.1612455,5.38947368 L51.0071756,20.0982456 C50.8949897,20.1730994 51.0071756,20.1730994 51.0071756,20.1730994 L50.7454086,20.1730994 L49.5487593,20.1730994 L38.1058005,20.0608187 C37.133523,20.0608187 36.3482219,19.2374269 36.3482219,18.2643275 L36.1612455,5.50175439 L36.1612455,5.50175439 Z" id="Shape" fill="#FFFFFF"></path>
                        <path d="M35.1889679,29.6421053 L35.1889679,29.754386 L12.7143986,29.754386 C17.014857,29.2678363 17.3140193,26.6853801 18.6228544,23.3169591 C19.5577367,20.8467836 21.0909436,17.3660819 24.2321479,17.328655 C27.3733523,17.328655 28.9065592,20.8467836 29.8414414,23.2795322 C30.3649755,24.7017544 30.7763237,25.974269 31.337253,27.0222222 C31.337253,27.0596491 32.2721353,29.6421053 35.1889679,29.6421053 L35.1889679,29.6421053 Z" id="Shape" fill="#FFFFFF"></path>
                        <polygon id="Shape" fill="#FFFFFF" points="18.5106686 48.8421053 18.4732733 52.3602339 15.4068595 54.1192982 12.377841 52.322807 12.377841 48.7672515 15.4816501 47.045614"></polygon>
                        <polygon id="Shape" fill="#FFFFFF" points="18.5106686 37.6888889 18.4732733 41.1695906 18.4732733 41.2070175 15.4068595 42.9660819 12.377841 41.1695906 12.4152363 37.6140351 15.4816501 35.8923977"></polygon>
                        <path d="M36.1612455,5.50175439 C35.8994784,5.16491228 35.5255255,4.97777778 35.1141773,4.94035088 L34.5158527,4.94035088 L6.09543227,4.71578947 C5.34752647,4.71578947 4.78659712,5.31461988 4.78659712,6.02573099 L4.33785364,61.6421053 C4.33785364,62.3532164 4.89878299,62.9520468 5.64668879,62.9520468 L50.3714557,63.3263158 C51.0819662,63.3263158 51.6802908,62.7274854 51.6802908,62.0163743 L51.829872,28.3321637 L51.9046626,21.2584795 C51.9046626,20.6222222 51.4185238,20.1356725 50.7828039,20.1356725" id="Shape" stroke="#000000" stroke-width="1.5"></path>
                        <path d="M36.1612455,6.61251582 C36.1612455,7.63579123 36.6066017,5.87477925 36.5995237,5.84412707 L51.0071756,20.0602122 C50.8949897,20.1356725 51.0071756,20.1356725 51.0071756,20.1356725 L50.7454086,20.1356725 L49.5487593,20.1356725 L38.1058005,20.022482 C37.133523,20.022482 36.3482219,19.1924182 36.3482219,18.2114338 L36.1612455,5.34544546 L36.1612455,5.19452477" id="Shape" stroke="#000000" stroke-width="1.5"></path>
                        <polyline id="Shape" stroke="#000000" stroke-width="1.5" points="18.4732733 41.1695906 18.4732733 41.2070175 15.4068595 42.9660819 12.377841 41.1695906 12.4152363 37.6140351 15.4816501 35.8923977 18.5106686 37.6888889"></polyline>
                        <polyline id="Shape" stroke="#000000" stroke-width="1.5" points="21.5396871 42.9660819 18.4732733 41.1695906 18.5106686 37.6888889 18.5106686 37.6140351"></polyline>
                        <polygon id="Shape" stroke="#000000" stroke-width="1.5" points="15.4816501 47.045614 18.5106686 48.8421053 18.4732733 52.3602339 15.4068595 54.1192982 12.377841 52.322807 12.377841 48.7672515"></polygon>
                        <path d="M15,42.9660819 L15,47.045614" id="Shape" stroke="#000000" stroke-width="1.5"></path>
                        <polyline id="Shape" stroke="#000000" stroke-width="1.5" points="12.7143986 12.7251462 12.7143986 17.328655 12.7143986 22.194152 12.7143986 27.0596491 12.7143986 29.754386 35.1889679 29.754386 37.3204994 29.754386"></polyline>
                        <path d="M24.2321479,17.328655 C21.0909436,17.328655 19.5577367,20.8467836 18.6228544,23.3169591 C17.3140193,26.6853801 17.014857,29.2678363 12.7143986,29.754386" id="Shape" stroke="#000000" stroke-width="1.5"></path>
                        <path d="M24.2321479,17.328655 C27.3733523,17.328655 28.9065592,20.8467836 29.8414414,23.2795322 C30.3649755,24.7017544 30.7763237,25.974269 31.337253,27.0222222 C31.337253,27.0222222 32.2721353,29.6046784 35.1889679,29.6046784" id="Shape" stroke="#000000" stroke-width="1.5"></path>
                        <path d="M10.7324482,17 L12.7143986,17" id="Shape" stroke="#000000" stroke-width="1.5"></path>
                        <path d="M10.7324482,22 L12.7143986,22" id="Shape" stroke="#000000" stroke-width="1.5"></path>
                        <polyline id="Shape" stroke="#000000" stroke-width="1.5" points="10.7324482 27.0596491 12.7143986 27.0596491 12.7143986 27.0596491"></polyline>
                        <path d="M26.2888889,39 L45.3604868,39" id="Shape" stroke="#000000" stroke-width="1.5"></path>
                        <path d="M26.2888889,44 L45.3604868,44" id="Shape" stroke="#000000" stroke-width="1.5"></path>
                        <path d="M26.2888889,49 L45.3604868,49" id="Shape" stroke="#000000" stroke-width="1.5"></path>
                    </g>
                    <g id="Group" transform="translate(23.000000, 117.000000)" stroke="#000000">
                        <path d="M17.3440141,56.618662 L23.7707746,56.618662 L27.1077465,56.618662 L69.9528169,56.618662 C70.7355634,56.618662 71.3947183,55.9545134 71.3947183,55.1658371 L71.3947183,21.8338828 C71.3947183,21.0452065 70.7767606,20.3810579 69.9528169,20.3810579 L59.6123239,20.3810579" id="Shape" stroke-width="1.5"></path>
                        <polyline id="Shape" stroke-width="1.5" points="52.5264085 6.47544814 52.5264085 6.47544814 50.7549296 7.38865237 50.631338 7.47167093 25.6658451 20.3810579 15.9021127 25.4451905 3.21338028 32.0036572"></polyline>
                        <polyline id="Shape" stroke-width="1.5" points="54.5862676 10.5433579 52.8147887 11.4565621 52.6911972 11.5395807 35.553169 20.3810579 15.9021127 30.5508323 5.27323944 36.0715669"></polyline>
                        <polyline id="Shape" stroke-width="1.5" points="56.6461268 14.6112676 54.8746479 15.5244718 54.7510563 15.5659811 45.440493 20.3810579 15.9021127 35.6979834 7.33309859 40.1394766"></polyline>
                        <polyline id="Shape" stroke-width="1.5" points="58.7059859 18.6376681 56.9757042 19.5508723 56.8521127 19.6338908 55.3690141 20.3810579 15.9021127 40.8036252 9.39295775 44.1658771"></polyline>
                        <polyline id="Shape" stroke-width="1.5" points="60.7658451 22.7055778 59.0355634 23.618782 58.9119718 23.7018006 15.9021127 45.909267 11.4528169 48.2337868"></polyline>
                        <polyline id="Shape" stroke-width="1.5" points="62.8257042 26.7734875 61.0954225 27.6866917 60.971831 27.728201 15.9021127 51.0564181 13.5126761 52.3016965"></polyline>
                        <path d="M56.6461268,14.6112676 L54.5862676,10.5433579 L52.5264085,6.47544814 L49.6426056,0.788676376 C49.271831,0.0830185659 48.4066901,-0.207546415 47.706338,0.166037132 L0.906338028,24.4074584 C0.205985915,24.7810419 -0.0823943662,25.6527369 0.288380282,26.3583947 L0.988732394,27.728201 L1.68908451,29.0980074 L3.21338028,32.0451665 L5.27323944,36.1130762 L7.33309859,40.1809859 L9.39295775,44.2488956 L11.4528169,48.3168054 L13.5126761,52.3847151 L15.4077465,56.1205506 C15.7785211,56.8262084 16.643662,57.1167734 17.3440141,56.7431898 L63.5260563,32.8338428 L63.6496479,32.7508243 L64.1440141,32.5017686 C64.8443662,32.128185 65.1327465,31.2564901 64.7619718,30.5508323 L62.8669014,26.8149968 L60.8070423,22.7470871 L59.6123239,20.4225672 L58.7471831,18.6791773 L56.6461268,14.6112676" id="Shape" stroke-width="1.5"></path>
                        <path d="" id="Shape" stroke-width="2"></path>
                    </g>
                    <g id="qna" transform="translate(72.000000, 5.000000)" stroke="#000000" stroke-width="1.5">
                        <path d="M11.9970779,0 C5.22456849,0 -0.231728859,5.6004205 0.00758242842,12.4693123 C0.246893715,18.9792028 5.77498445,24.0291546 12.3081826,24.0291546 L16.8072348,24.0291546 L23.0771905,28.8876391 C23.4600886,29.1509067 24.0105045,28.9355059 24.0105045,28.4089707 L24.0105045,23.9812878 C30.6394272,23.9812878 36,18.6202015 36,11.9906439 C35.9521377,5.36108629 30.5915649,3.40114368e-15 23.9626423,3.40114368e-15 L11.9970779,3.40114368e-15 L11.9970779,0 Z" id="Shape" fill="#FFFFFF"></path>
                        <path d="M9.5,6.75 L26.5,6.75" id="Line" stroke-linecap="square"></path>
                        <path d="M9.5,11.75 L21.5,11.75" id="Line-Copy-2" stroke-linecap="square"></path>
                        <path d="M9.5,16.75 L16.5,16.75" id="Line-Copy-3" stroke-linecap="square"></path>
                    </g>
                    <g id="qna-copy" transform="translate(199.000000, 281.500000) rotate(-17.000000) translate(-199.000000, -281.500000) translate(181.000000, 267.000000)" stroke="#000000" stroke-width="1.5">
                        <path d="M11.9970779,0 C5.22456849,0 -0.231728859,5.6004205 0.00758242842,12.4693123 C0.246893715,18.9792028 5.77498445,24.0291546 12.3081826,24.0291546 L16.8072348,24.0291546 L23.0771905,28.8876391 C23.4600886,29.1509067 24.0105045,28.9355059 24.0105045,28.4089707 L24.0105045,23.9812878 C30.6394272,23.9812878 36,18.6202015 36,11.9906439 C35.9521377,5.36108629 30.5915649,3.40114368e-15 23.9626423,3.40114368e-15 L11.9970779,3.40114368e-15 L11.9970779,0 Z" id="Shape" fill="#FFFFFF"></path>
                        <path d="M9.5,6.75 L26.5,6.75" id="Line" stroke-linecap="square"></path>
                        <path d="M9.5,11.75 L21.5,11.75" id="Line-Copy-2" stroke-linecap="square"></path>
                        <path d="M9.5,16.75 L16.5,16.75" id="Line-Copy-3" stroke-linecap="square"></path>
                    </g>
                    <g id="profile" transform="translate(93.000000, 102.000000)" stroke="#000000" stroke-width="1.5">
                        <circle id="Oval-7" cx="10" cy="10" r="10"></circle>
                        <circle id="Oval-8" cx="10" cy="9" r="3"></circle>
                        <path d="M16.8238072,17.432438 C16.1120248,14.3211552 13.3270798,12 10,12 C6.77675962,12 4.06234171,14.1785279 3.2488496,17.1434805" id="Oval-8-Copy"></path>
                    </g>
                    <g id="Page-1" transform="translate(57.000000, 265.000000) rotate(-40.000000) translate(-57.000000, -265.000000) translate(25.000000, 234.000000)">
                        <g id="Group-26" transform="translate(32.103325, 30.545181) rotate(19.000000) translate(-32.103325, -30.545181) translate(6.603325, 7.045181)">
                            <g id="Group-5" transform="translate(16.213333, 40.579710)">
                                <path d="M11.595168,0.0816057971 C11.595168,3.25777971 9.023328,5.83296812 5.85037867,5.83296812 C2.67783467,5.83296812 0.105994667,3.25777971 0.105994667,0.0816057971" id="Fill-2" fill="#FEFEFE"></path>
                                <path d="M11.595168,0.0816057971 C11.595168,3.25777971 9.023328,5.83296812 5.85037867,5.83296812 C2.67783467,5.83296812 0.105994667,3.25777971 0.105994667,0.0816057971" id="Stroke-4" stroke="#000000" stroke-width="1.5" stroke-linecap="round" stroke-linejoin="round"></path>
                            </g>
                            <g id="Group-9" transform="translate(19.861333, 0.000000)">
                                <path d="M0.193749333,4.18944928 L0.193749333,2.17831884 C0.193749333,1.06765217 1.093184,0.167188406 2.20258133,0.167188406 L2.20258133,0.167188406 C3.31197867,0.167188406 4.21141333,1.06765217 4.21141333,2.17831884 L4.21141333,4.18944928" id="Fill-6" fill="#FEFEFE"></path>
                                <path d="M0.193749333,4.18944928 L0.193749333,2.17831884 C0.193749333,1.06765217 1.093184,0.167188406 2.20258133,0.167188406 L2.20258133,0.167188406 C3.31197867,0.167188406 4.21141333,1.06765217 4.21141333,2.17831884 L4.21141333,4.18944928" id="Stroke-8" stroke="#000000" stroke-width="1.5" stroke-linecap="round" stroke-linejoin="round"></path>
                            </g>
                            <g id="Group-13" transform="translate(0.000000, 3.652174)">
                                <path d="M22.0638336,0.352069565 C13.3961856,0.189344928 6.3020416,7.56024348 6.3020416,16.2390261 L6.3020416,27.9255768 C6.3020416,27.9255768 6.3020416,31.5809971 2.95520427,32.1905043 C1.9451136,32.3743304 0.999470933,32.8896928 0.493614933,33.7840696 C0.2718976,34.1760696 0.115438933,34.6358377 0.115438933,35.1516058 L0.115438933,36.0703304 C0.115438933,36.5402435 0.496046933,36.921287 0.965422933,36.921287 L22.7995136,36.921287" id="Fill-10" fill="#FEFEFE"></path>
                                <path d="M22.0638336,0.352069565 C13.3961856,0.189344928 6.3020416,7.56024348 6.3020416,16.2390261 L6.3020416,27.9255768 C6.3020416,27.9255768 6.3020416,31.5809971 2.95520427,32.1905043 C1.9451136,32.3743304 0.999470933,32.8896928 0.493614933,33.7840696 C0.2718976,34.1760696 0.115438933,34.6358377 0.115438933,35.1516058 L0.115438933,36.0703304 C0.115438933,36.5402435 0.496046933,36.921287 0.965422933,36.921287 L22.7995136,36.921287" id="Stroke-12" stroke="#000000" stroke-width="1.5" stroke-linecap="round" stroke-linejoin="round"></path>
                            </g>
                            <g id="Group-17" transform="translate(21.888000, 3.652174)">
                                <path d="M0.1758336,0.352069565 C8.8434816,0.189344928 15.9376256,7.56024348 15.9376256,16.2390261 L15.9376256,27.9255768 C15.9376256,27.9255768 15.9376256,31.5809971 19.2844629,32.1905043 C20.2945536,32.3743304 21.2401963,32.8896928 21.7460523,33.7840696 C21.9677696,34.1760696 22.1242283,34.6358377 22.1242283,35.1516058 L22.1242283,36.0703304 C22.1242283,36.5402435 21.7436203,36.921287 21.2742443,36.921287 L0.323780267,36.921287" id="Fill-14" fill="#FEFEFE"></path>
                                <path d="M0.1758336,0.352069565 C8.8434816,0.189344928 15.9376256,7.56024348 15.9376256,16.2390261 L15.9376256,27.9255768 C15.9376256,27.9255768 15.9376256,31.5809971 19.2844629,32.1905043 C20.2945536,32.3743304 21.2401963,32.8896928 21.7460523,33.7840696 C21.9677696,34.1760696 22.1242283,34.6358377 22.1242283,35.1516058 L22.1242283,36.0703304 C22.1242283,36.5402435 21.7436203,36.921287 21.2742443,36.921287 L0.323780267,36.921287" id="Stroke-16" stroke="#000000" stroke-width="1.5" stroke-linecap="round" stroke-linejoin="round"></path>
                            </g>
                            <path d="M39.0714581,0.171327536 C45.3034581,0.171327536 50.3324288,5.22187826 50.3324288,11.4451826 C50.3324288,17.668487 45.3034581,22.7190377 39.0714581,22.7190377 C32.8552661,22.7190377 27.8104875,17.668487 27.8104875,11.4451826 C27.8104875,5.22187826 32.8552661,0.171327536 39.0714581,0.171327536" id="Fill-18" fill="#FFFFFF"></path>
                            <path d="M50.3325504,11.4453043 C50.3325504,17.6686087 45.3031744,22.7191594 39.0715797,22.7191594 C32.8553877,22.7191594 27.8106091,17.6686087 27.8106091,11.4453043 C27.8106091,5.222 32.8553877,0.171449275 39.0715797,0.171449275 C45.3031744,0.171449275 50.3325504,5.222 50.3325504,11.4453043 L50.3325504,11.4453043 Z" id="Stroke-20" stroke="#000000" stroke-width="1.5"></path>
                            <path d="M37.7590699,9.79091014 L35.1726379,9.79091014 L35.1726379,8.07925797 C36.8036992,8.0334029 38.0253739,7.34314203 38.2912725,5.80395362 L40.3151019,5.80395362 L40.3151019,16.4999536 C40.3151019,16.8245913 40.0520405,17.0879536 39.7277739,17.0879536 L38.3463979,17.0879536 C38.0221312,17.0879536 37.7590699,16.8245913 37.7590699,16.4999536 L37.7590699,9.79091014 Z" id="Fill-22" fill="#FEFEFE"></path>
                            <path d="M37.7590699,9.79091014 L35.1726379,9.79091014 L35.1726379,8.07925797 C36.8036992,8.0334029 38.0253739,7.34314203 38.2912725,5.80395362 L40.3151019,5.80395362 L40.3151019,16.4999536 C40.3151019,16.8245913 40.0520405,17.0879536 39.7277739,17.0879536 L38.3463979,17.0879536 C38.0221312,17.0879536 37.7590699,16.8245913 37.7590699,16.4999536 L37.7590699,9.79091014 L37.7590699,9.79091014 Z" id="Stroke-24" stroke="#000000" stroke-width="0.5"></path>
                        </g>
                    </g>
                    <path d="M193.201531,245.646683 C193.354407,246.181097 193.046839,246.48261 192.531342,246.325253 L163.901327,237.585874 C163.378317,237.426223 163.07098,236.86147 163.215472,236.322218 L167.817084,219.148766 C167.961307,218.610518 168.50972,218.305898 169.025217,218.463254 L197.655232,227.202634 C198.178243,227.362285 198.252363,227.766332 197.819206,228.106338 L190.733757,233.668054 C190.301306,234.007505 190.076285,234.721575 190.227541,235.250328 L193.201531,245.646683 Z" id="Path-20" stroke="#000000" stroke-width="1.5"></path>
                    <g id="Group-8" transform="translate(284.000000, 172.000000) rotate(19.000000) translate(-284.000000, -172.000000) translate(265.000000, 157.000000)" stroke="#000000" stroke-width="1.5">
                        <path d="M24.9115183,18.5358127 C24.9115183,22.7471948 21.4874346,26.1618289 17.2643979,26.1618289 C13.0413613,26.1618289 9.61727749,22.7471948 9.61727749,18.5358127 C9.61727749,14.3244306 13.0413613,10.9097964 17.2643979,10.9097964 C21.4874346,10.9097964 24.9115183,14.3244306 24.9115183,18.5358127 L24.9115183,18.5358127 Z M3.96753927,22.8041054 C2.25549738,23.0886582 1,24.568333 1,26.3325606 C1,28.3244306 2.65497382,29.9179265 4.59528796,29.9179265 L4.70942408,29.9179265 L35.5832461,29.9179265 C36.6675393,29.9179265 37.5235602,29.064268 37.5235602,27.9829672 L37.5235602,8.97483707 C37.5235602,7.89353626 36.6675393,7.03987772 35.5832461,7.03987772 L4.65235602,7.03987772 L4.65235602,22.0073574 C4.65235602,22.4057314 4.36701571,22.7471948 3.96753927,22.8041054 L3.96753927,22.8041054 Z" id="Shape" fill="#FFFFFF"></path>
                        <path d="M0.75,3 L0.75,27" id="Path-19"></path>
                        <path d="M17.2643979,26.1049184 C21.4874346,26.1049184 24.9115183,22.6902842 24.9115183,18.4789021 C24.9115183,14.26752 21.4874346,10.8528859 17.2643979,10.8528859 C13.0413613,10.8528859 9.61727749,14.26752 9.61727749,18.4789021 C9.61727749,22.7471948 13.0413613,26.1049184 17.2643979,26.1049184 L17.2643979,26.1049184 Z" id="Shape" fill="#FFFFFF"></path>
                        <path d="M1,3.45451187 C1,1.86101593 2.08429319,0.495162274 3.51099476,0.0398777212 C4.02460733,-0.130853986 4.59528796,0.267519998 4.59528796,0.836625689 L4.59528796,7.09678829 L4.59528796,22.064268 C4.59528796,22.4626419 4.30994764,22.8041054 3.96753927,22.8610159 C2.25549738,23.1455688 1,24.6252436 1,26.3894712 C1,28.3813411 2.65497382,29.9748371 4.59528796,29.9748371" id="Shape"></path>
                    </g>
                    <g id="bulb" transform="translate(55.311531, 95.482897) rotate(47.000000) translate(-55.311531, -95.482897) translate(45.311531, 82.482897)">
                        <g id="Group" transform="translate(0.000000, 0.000000)"></g>
                    </g>
                    <g id="unlocks" transform="translate(123.000000, 128.000000)" stroke="#000000">
                        <use id="Rectangle-6" mask="url(#mask-4)" stroke-width="3" xlink:href="#path-3"></use>
                        <path d="M4,8.50617795 L4,8.49460964 L4,8.49460964 L4,4.02341813 C4,1.80134566 5.79535615,0 8,0 L8,0 C10.209139,0 12,1.79720409 12,4.0304551 L12,5.18008353" id="Rectangle-7" stroke-width="1.5" stroke-linecap="round"></path>
                        <path d="M7.75373134,13 L7.74626866,17" id="Path-16" stroke-width="1.5" stroke-linecap="round"></path>
                    </g>
                    <g id="target" transform="translate(0.000000, 9.000000)" stroke="#000000" stroke-width="1.5" stroke-linecap="round">
                        <path d="M19.4036271,28.4993005 C18.5051895,30.3069128 18,32.3444597 18,34.5 C18,41.9558441 24.0441559,48 31.5,48 C38.9558441,48 45,41.9558441 45,34.5 C45,27.0441559 38.9558441,21 31.5,21 C28.066027,21 25.3824549,21.8883161 23,24" id="Oval-3"></path>
                        <path d="M13.7343781,22.3871231 C11.3779932,25.8365001 10,30.0073263 10,34.5 C10,46.3741221 19.6258779,56 31.5,56 L31.5,56 C43.3741221,56 53,46.3741221 53,34.5 C53,22.6258779 43.3741221,13 31.5,13 C26.1611909,13 21.276877,14.945925 17.5176307,18.1672026" id="Oval-4"></path>
                        <path d="M8.0370682,17.6617009 C4.85868856,22.3143489 3,27.9401145 3,34 C3,50.0162577 15.9837423,63 32,63 L32,63 C48.0162577,63 61,50.0162577 61,34 C61,17.9837423 48.0162577,5 32,5 C24.7988157,5 18.2106713,7.62473608 13.14006,11.9697151" id="Oval-4-Copy"></path>
                        <path d="M26.4849654,32.238511 C26.173412,32.9283244 26,33.6939109 26,34.5 C26,37.5375661 28.4624339,40 31.5,40 L31.5,40 C34.5375661,40 37,37.5375661 37,34.5 C37,31.4624339 34.5375661,29 31.5,29 C30.5828724,29 29.7181742,29.2244774 28.9578518,29.6214861" id="Oval-5"></path>
                        <path d="M30.5,32.5 L10,10" id="Line"></path>
                    </g>
                    <g id="target-copy-2" transform="translate(297.000000, 9.000000)" stroke="#000000" stroke-width="1.5">
                        <path d="M13.7343781,22.3871231 C11.3779932,25.8365001 10,30.0073263 10,34.5 C10,46.3741221 19.6258779,56 31.5,56 L31.5,56 C43.3741221,56 53,46.3741221 53,34.5 C53,22.6258779 43.3741221,13 31.5,13 C26.1611909,13 21.276877,14.945925 17.5176307,18.1672026" id="Oval-4" stroke-linecap="round"></path>
                        <path d="M8.0370682,17.6617009 C4.85868856,22.3143489 3,27.9401145 3,34 C3,50.0162577 15.9837423,63 32,63 L32,63 C48.0162577,63 61,50.0162577 61,34 C61,17.9837423 48.0162577,5 32,5 C24.7988157,5 18.2106713,7.62473608 13.14006,11.9697151" id="Oval-4-Copy" stroke-linecap="round"></path>
                        <path d="M30.5,32.5 L10,10" id="Line" stroke-linecap="round"></path>
                        <polygon id="Path-2" points="1 5 6 10 10 10 10 6 4 0 4 4 0 4"></polygon>
                    </g>
                    <g id="clock" transform="translate(19.000000, 96.000000)" stroke="#000000" stroke-linecap="round">
                        <polyline id="Path-3" points="8.14285714 5.42857143 8.14285714 10.8571429 13.5714286 10.8571429"></polyline>
                        <circle id="Oval-2" stroke-width="1.5" cx="9.5" cy="9.5" r="9.5"></circle>
                    </g>
                    <g id="clock-copy" transform="translate(226.000000, 127.000000)" stroke="#000000" stroke-linecap="round">
                        <polyline id="Path-3" points="8.14285714 5.42857143 8.14285714 10.8571429 13.5714286 10.8571429"></polyline>
                        <circle id="Oval-2" stroke-width="1.5" cx="9.5" cy="9.5" r="9.5"></circle>
                    </g>
                    <g id="photo" transform="translate(95.000000, 57.000000) rotate(-37.000000) translate(-95.000000, -57.000000) translate(80.000000, 46.000000)" stroke="#000000">
                        <use id="Rectangle" mask="url(#mask-6)" stroke-width="3" xlink:href="#path-5"></use>
                        <polyline id="Path-4" stroke-width="1.5" stroke-linecap="round" points="3 18 12 9 22 19"></polyline>
                        <polyline id="Path-5" stroke-width="1.5" stroke-linecap="round" points="19 16 22 13 27 18"></polyline>
                        <circle id="Oval-6" stroke-width="1.5" cx="18.1968205" cy="6.40045053" r="2"></circle>
                    </g>
                    <g id="photo-copy" transform="translate(277.806558, 233.663056) rotate(4.000000) translate(-277.806558, -233.663056) translate(258.306558, 219.163056)" stroke="#000000">
                        <use id="Rectangle" mask="url(#mask-8)" stroke-width="3" xlink:href="#path-7"></use>
                        <polyline id="Path-4" stroke-width="1.5" stroke-linecap="round" points="3.86737869 23.2042721 15.4695148 11.6021361 28.360777 24.4933984"></polyline>
                        <polyline id="Path-5" stroke-width="1.5" stroke-linecap="round" points="24.4933984 20.6260197 28.360777 16.758641 34.8064082 23.2042721"></polyline>
                        <circle id="Oval-6" stroke-width="1.5" cx="23.4579986" cy="8.25098866" r="2.57825246"></circle>
                    </g>
                    <g id="bulb" transform="translate(67.000000, 94.500000) rotate(36.000000) translate(-67.000000, -94.500000) translate(56.000000, 78.000000)" stroke="#000000" stroke-width="1.5">
                        <path d="M8.33714967,30.5679082 C8.57734049,31.7641194 9.62659511,32.6660755 10.8717949,32.6660755 C12.1169946,32.6660755 13.1662493,31.7641194 13.4064401,30.5679082 M16.0927847,24.0047385 C16.2824091,22.130461 17.1230769,20.36493 18.4883721,19.0087975 C20.599523,16.9234239 21.7562314,14.1407935 21.7562314,11.1662575 C21.7562314,5.65217155 17.4707215,-0.0794073949 10.2902803,0.170069814 L10.2902803,0.170069814 C4.61419201,0.374769062 0,5.40269434 0,11.1598607 C0,14.1343966 1.15670841,16.9234239 3.25521765,19.0087975 C4.62051282,20.36493 5.46118068,22.130461 5.65080501,24.0047385" id="Path"></path>
                        <rect id="Rectangle-2" x="5" y="24" width="12" height="3" rx="1.5"></rect>
                        <rect id="Rectangle-2-Copy" x="6" y="27" width="10" height="3" rx="1.5"></rect>
                    </g>
                    <g id="help" transform="translate(211.000000, 3.000000)" stroke="#000000" stroke-width="1.5">
                        <circle id="Oval-9" cx="11" cy="11" r="11"></circle>
                        <circle id="Oval-9-Copy" cx="11" cy="11" r="7"></circle>
                        <path d="M3,18 L5.54950976,15.4504902 M15.5925855,5.40741454 L18,3" id="Path-8"></path>
                        <path d="M19,19 L15.9493398,15.9493398 M5.99565584,5.99565584 L3,3" id="Path-6"></path>
                    </g>
                    <g id="help-copy" transform="translate(20.000000, 192.000000)" stroke="#000000" stroke-width="1.5">
                        <circle id="Oval-9" cx="11" cy="11" r="11"></circle>
                        <circle id="Oval-9-Copy" cx="11" cy="11" r="7"></circle>
                        <path d="M3,18 L5.54950976,15.4504902 M15.5925855,5.40741454 L18,3" id="Path-8"></path>
                        <path d="M19,19 L15.9493398,15.9493398 M5.99565584,5.99565584 L3,3" id="Path-6"></path>
                    </g>
                    <g id="globe" transform="translate(245.000000, 19.000000)" stroke="#000000" stroke-width="1.5">
                        <ellipse id="Oval-10" cx="13.92" cy="10.2857143" rx="10.44" ry="10.2857143"></ellipse>
                        <path d="M1.70272595,18.9968469 L1.70272595,18.9968469 C4.44297696,22.7207953 8.89439428,25.1428571 13.92,25.1428571 C22.248454,25.1428571 29,18.4910877 29,10.2857143 C29,7.39518685 28.1621607,4.69745532 26.7126944,2.41538896" id="Oval-10-Copy"></path>
                        <path d="M0,20.5714286 L3.48,18.2857143 M25.2780854,2.66684432 L29,0" id="Path-7" stroke-linecap="round"></path>
                        <path d="M2.9,26.8571429 L17.98,31.4285714" id="Line" stroke-linecap="round"></path>
                        <path d="M10.44,28.5714286 L11.6,25.1428571" id="Path-9"></path>
                    </g>
                    <g id="search" transform="translate(273.000000, 64.000000)" stroke="#000000" stroke-width="1.5">
                        <circle id="Oval-11" cx="8.5" cy="8.5" r="8.5"></circle>
                        <path d="M13,16 L18,23" id="Path-10" stroke-linecap="round"></path>
                    </g>
                    <g id="notepad" transform="translate(270.000000, 100.000000)">
                        <use id="Rectangle-3" stroke="#000000" mask="url(#mask-10)" stroke-width="3" stroke-linecap="round" xlink:href="#path-9"></use>
                        <use id="Rectangle-3-Copy" stroke="#000000" mask="url(#mask-12)" stroke-width="3" stroke-linecap="round" xlink:href="#path-11"></use>
                        <path d="M8.5,12.765625 L10.9285714,12.765625" id="Path-11" stroke="#000000" stroke-width="1.5" stroke-linecap="round"></path>
                        <path d="M13.3571429,12.765625 L24.2857143,12.765625" id="Path-12" stroke="#000000" stroke-width="1.5" stroke-linecap="round"></path>
                        <path d="M8.5,16.328125 L10.9285714,16.328125" id="Path-11-Copy" stroke="#000000" stroke-width="1.5" stroke-linecap="round"></path>
                        <path d="M13.3571429,16.328125 L21.273317,16.328125" id="Path-12-Copy" stroke="#000000" stroke-width="1.5" stroke-linecap="round"></path>
                        <path d="M8.5,19.890625 L10.9285714,19.890625" id="Path-11-Copy-2" stroke="#000000" stroke-width="1.5" stroke-linecap="round"></path>
                        <path d="M13.3571429,19.890625 L24.2857143,19.890625" id="Path-12-Copy-2" stroke="#000000" stroke-width="1.5" stroke-linecap="round"></path>
                        <path d="M8.5,23.453125 L10.9285714,23.453125" id="Path-11-Copy-3" stroke="#000000" stroke-width="1.5" stroke-linecap="round"></path>
                        <path d="M13.3571429,23.453125 L22.4845015,23.453125" id="Path-12-Copy-3" stroke="#000000" stroke-width="1.5" stroke-linecap="round"></path>
                        <path d="M8.5,28.203125 L10.9285714,28.203125" id="Path-11-Copy-4" stroke="#000000" stroke-width="1.5" stroke-linecap="round"></path>
                        <path d="M13.3571429,28.203125 L20.0632546,28.203125" id="Path-12-Copy-4" stroke="#000000" stroke-width="1.5" stroke-linecap="round"></path>
                        <path d="M26.1071429,35.03125 L30.9642857,30.28125" id="Path-13" stroke="#000000" stroke-width="1.5"></path>
                        <path d="M24.2857143,34.4375 L24.2857143,31.5103893 C24.2857143,30.5036354 25.0941824,29.6875 26.1071429,29.6875 L27.9285714,29.6875" id="Path-14" stroke="#000000" stroke-width="1.5" stroke-linecap="round"></path>
                        <use id="Rectangle-4" stroke="#000000" mask="url(#mask-14)" stroke-width="3" xlink:href="#path-13"></use>
                        <path d="M20.6428571,2.96875 C20.6428571,1.32915465 19.0118944,0 17,0 C14.9881056,0 13.3571429,1.32915465 13.3571429,2.96875" id="Oval-12" stroke="#000000" stroke-width="1.5"></path>
                        <ellipse id="Oval-13" fill="#000000" cx="17" cy="3.5625" rx="1.21428571" ry="1.1875"></ellipse>
                    </g>
                    <g id="books" transform="translate(161.000000, 112.000000)" stroke="#000000">
                        <use id="Rectangle-5" mask="url(#mask-16)" stroke-width="3" xlink:href="#path-15"></use>
                        <path d="M23.9259259,40 L3.00600875,40 C1.34583596,40 0,38.6518892 0,37.0046074 L0,11.25" id="Rectangle-5-Copy" stroke-width="1.5" stroke-linecap="round"></path>
                        <polyline id="Path-15" stroke-width="1.5" points="11.3333333 1.25 11.3333333 13.7500002 16.3703704 8.75 22.0719092 14.0374756 22.0719092 1.233479"></polyline>
                    </g>
                    <g id="phone" transform="translate(131.982471, 185.008574) rotate(1.000000) translate(-131.982471, -185.008574) translate(112.982471, 162.008574)">
                        <rect id="Rectangle-path" fill="#000000" x="20.7075472" y="42.047619" width="4.41509434" height="1.52380952"></rect>
                        <rect id="Rectangle-path" fill="#000000" x="16.2924528" y="2.42857143" width="1.47169811" height="1.52380952"></rect>
                        <path d="M9,8.26483129 L9,3.0071735 C9,1.34635744 10.3504982,1.65982783e-11 11.9964905,1.65982783e-11 L34.0035095,1.65982783e-11 C35.6584255,1.65982783e-11 37,1.35178054 37,3.00044415 L37,42.9995558 C37,44.6566554 35.6495018,46 34.0035095,46 L11.9964905,46 C10.3415745,46 9,44.6549905 9,42.999657 L9,25.7399385 L9,25.7399385" id="Rectangle-8" stroke="#000000" stroke-width="1.5"></path>
                        <path d="M9.72205609,6.75 L37.2472598,6.75" id="Path-17" stroke="#000000" stroke-width="1.5"></path>
                        <path d="M8.80694014,39.75 L36.2979855,39.75" id="Path-17-Copy" stroke="#000000" stroke-width="1.5"></path>
                        <path d="M20.3313673,39.75 L25.3313673,39.75" id="Path-18" stroke="#000000" stroke-width="1.5"></path>
                        <path d="M12.0358948,23.9998477 L3.01921066,23.9998477 C1.36138535,23.9998477 0.0174524064,22.6574688 0.0174524064,20.9964965 L0.0174524064,13.0031989 L0.0174524064,13.0031989 C0.0174524064,11.3444938 1.36053367,9.9998477 3.01883935,9.9998477 L19.0160655,9.9998477 C20.6736857,9.9998477 22.0174524,11.3422265 22.0174524,13.0031989 L22.0174524,20.9964965 C22.0174524,22.6552015 20.6747744,23.9998477 19.0246754,23.9998477 L19.0160655,23.9998477" id="Rectangle-9" stroke="#000000" stroke-width="1.5"></path>
                        <path d="M19.1595258,2.7498477 L26.6686327,2.7498477" id="Path-21" stroke="#000000" stroke-width="1.5"></path>
                        <path d="M4.01745241,15.7498477 L18.3865597,15.7498477" id="Path-21-Copy" stroke="#000000" stroke-width="1.5"></path>
                        <path d="M7.08680512,19.6968813 L8.45789207,19.6968813" id="Path-21-Copy-2" stroke="#000000" stroke-width="1.5"></path>
                        <path d="M10.0863482,19.644524 L11.4574352,19.644524" id="Path-21-Copy-3" stroke="#000000" stroke-width="1.5"></path>
                        <path d="M13.0858913,19.5921668 L14.4569782,19.5921668" id="Path-21-Copy-4" stroke="#000000" stroke-width="1.5"></path>
                        <polyline id="Path-22" stroke="#000000" stroke-width="1.5" points="19.0337649 23.4220177 19.0337649 28.1219688 11.5237551 23.82192"></polyline>
                    </g>
                    <g id="pencil" transform="translate(263.000000, 278.500000) rotate(-13.000000) translate(-263.000000, -278.500000) translate(234.000000, 271.000000)" stroke="#000000" stroke-width="1.5">
                        <path d="M11.9591091,-5.68434189e-14 L49.0409231,-5.68434189e-14 C53.9888847,-5.68434189e-14 58,3.36629279 58,7.5 C58,11.6421356 53.9868708,15 49.040854,15 L12.0989679,15" id="Rectangle-10"></path>
                        <polygon id="Path-23" points="11.8099976 0.209960938 15 7 12.1099854 14.8999023 1.42108547e-13 8"></polygon>
                        <path d="M5.75,4 L5.75,11" id="Path-24"></path>
                        <path d="M47.75,5.68434189e-14 L47.75,15" id="Path-25"></path>
                        <path d="M48,7 L14.4962689,7" id="Path-26"></path>
                    </g>
                    <g id="upload" transform="translate(55.000000, 194.000000)" stroke="#000000" stroke-width="1.5" stroke-linecap="round">
                        <path d="M17,28 L9.99957974,28 C4.47696435,28 0,23.5240618 0,18 C0,12.4771525 4.47655312,8 9.99528253,8 L10.1099854,8" id="Rectangle-11"></path>
                        <path d="M45,28 L37.9995797,28 C32.4769643,28 28,24.4192495 28,20 C28,15.581722 32.4765531,12 37.9952825,12 L38.0900269,12" id="Rectangle-11-Copy" transform="translate(36.500000, 20.000000) scale(-1, 1) translate(-36.500000, -20.000000) "></path>
                        <path d="M34.9400024,11.9099121 C34.8010368,5.35753137 29.1395913,0 22.25,0 C16.7768504,0 12.0787651,3.3810565 10.1599731,8.01000977" id="Oval-14"></path>
                        <path d="M22.9500122,29 L23.0500488,12.6867343" id="Path-27"></path>
                        <polyline id="Path-28" points="17 16.5708452 23 11.9099121 29 16.5708452"></polyline>
                    </g>
                    <g id="degree" transform="translate(129.000000, 16.000000)" stroke-width="1.5" stroke="#000000">
                        <polygon id="Path-29" points="15 0 0 6 15 12 30 6"></polygon>
                        <path d="M6,9 L6,18 C6,18 11,21 16,21 C21,21 25,18 25,18 L25,8" id="Path-30"></path>
                        <path d="M29.75,6 L29.75,22" id="Path-31" stroke-linecap="round"></path>
                    </g>
                    <g id="folder" transform="translate(236.808286, 90.196256) rotate(-7.000000) translate(-236.808286, -90.196256) translate(217.808286, 74.196256)">
                        <g id="Group-53" transform="translate(0.000000, 3.026727)">
                            <path d="M35.8577752,5.51760152 C36.3589091,5.71073788 36.7387125,6.15704091 36.8396983,6.70569242 C36.8507667,6.74588939 36.8561427,6.78863182 36.8601484,6.82851061 C36.8649974,6.88535909 36.869741,6.94231364 36.8687923,7.00181364 L36.8699519,24.3333894 L36.8678436,24.4212076 C36.8659462,24.4325561 36.8682652,24.4453894 36.8664732,24.4566318 C36.8283137,24.9571318 36.5820687,25.4095864 36.2056385,25.6951015 L34.2835359,24.3672227 L34.2833251,19.4276621 L34.2835359,8.28652576 C34.2851171,8.28238939 34.2825872,8.27655606 34.2841684,8.2724197 L34.282798,8.1999803 C34.284063,7.38607121 33.6251256,6.72563182 32.8161855,6.72446515 L20.2925815,6.72552576 L23.033533,5.45704091 L23.0339547,5.41164697 L35.2883336,5.41111667 C35.4885131,5.41058636 35.6815245,5.44813182 35.8577752,5.51760152" id="Fill-1" fill="#FFFFFF"></path>
                            <path d="M36.8786034,6.93727123 C36.8708034,6.86207123 36.8608034,6.78147122 36.8396034,6.70567121 C36.8608034,6.78147122 36.8708034,6.86207123 36.8786034,6.93727123" id="Fill-3" fill="#00B4E0"></path>
                            <path d="M32.8169444,6.81096818 L20.1030698,6.81149848 L20.2926026,6.72558939 L32.8161011,6.72442273 C33.6251467,6.72569545 34.2839786,7.38602879 34.2828191,8.20004394 L34.284084,8.27237727 C34.2780755,7.46525606 33.6217735,6.81065 32.8169444,6.81096818" id="Fill-9" fill="#00B4E0"></path>
                            <polygon id="Fill-13" fill="#FFFFFF" points="34.2833145 19.4277152 34.2835254 24.3672758 23.6599926 17.0402909 34.2411493 19.4260182"></polygon>
                            <polygon id="Fill-15" fill="#FEFEFE" points="36.9699895 26.0720303 36.9719895 26.2218303 36.7557895 26.0768303"></polygon>
                            <path d="M34.2835254,24.3672227 L36.2056279,25.6951015 C35.9862632,25.8607682 35.7211493,25.970647 35.4325282,25.9973742 C34.5126934,26.0881621 34.2968074,25.3831773 34.2858444,24.4878136 L34.2844741,24.48495 L34.2844741,24.4154803 L34.2834199,24.4055106 L34.2835254,24.3672227 Z" id="Fill-23" fill="#FFFFFF"></path>
                            <path d="M34.2849484,26.1811242 L36.869467,26.1585333 C36.8703103,26.9924879 36.2627091,27.7410636 35.4350054,27.8212455 C35.3416094,27.8288818 35.2555923,27.8297303 35.1769541,27.8236848 C35.1698915,27.8233667 35.1670453,27.8247455 35.1628288,27.8231545 C34.4439114,27.7531545 34.2837889,27.0646091 34.2845268,26.2265182 L34.2849484,26.1811242 Z" id="Fill-31" fill="#FFFFFF"></path>
                            <path d="M33.014963,27.8178091 L33.7086866,26.2827939 L33.7097407,26.1850061 L34.2849801,26.1810818 L34.2845584,26.2264758 C34.2838205,27.0645667 34.443943,27.7531121 35.1628604,27.8231121 L33.014963,27.8178091 Z" id="Fill-33" fill="#FFFFFF"></path>
                            <path d="M23.0339758,5.41165758 L23.0335541,5.45705152 L20.2926026,6.72553636 L18.8408533,6.72405152 C18.1980442,6.72383939 17.6218561,6.32483939 17.3978533,5.7174303 L16.6296026,3.65720303 C16.2410499,2.61346061 15.2465826,1.92120303 14.1373205,1.92067273 L1.86027778,1.92459697 L1.85901282,1.92162727 C1.86080484,1.91038485 1.86270228,1.89914242 1.86164815,1.88917273 C1.87535185,1.7578697 1.90423504,1.59877879 1.9489302,1.42897576 C2.18094444,0.6979 2.84230627,0.154339394 3.63353704,0.10809697 L15.7666909,0.106930303 C16.5575,0.105975758 17.2712521,0.588445455 17.5705199,1.32514242 L18.3926368,3.91365758 L18.5680442,4.46676364 L18.8674174,5.4118697 L23.0339758,5.41165758 Z" id="Fill-39" fill="#FFFFFF"></path>
                            <path d="M15.768251,0.102730303 C16.5590601,0.101881818 17.2728123,0.584245455 17.5720801,1.32094242 L18.3926157,3.9137 L17.5704989,1.32518485 C17.2712311,0.588487879 16.5574789,0.106018182 15.7666698,0.106972727 L3.63351595,0.108139394 C3.67188632,0.101139394 3.70994046,0.101245455 3.74799459,0.101351515 L15.768251,0.102730303 Z" id="Fill-43" fill="#FEFEFE"></path>
                            <path d="M3.63351595,0.108107576 C2.8423906,0.15435 2.18092336,0.697910606 1.94901453,1.4288803 C2.10681795,0.825395455 2.45099174,0.106092424 2.85261567,0.108001515 L3.63351595,0.108107576 Z" id="Fill-45" fill="#FEFEFE"></path>
                            <path d="M2.02727979,1.42893333 C1.94227978,1.61342285 1.88747977,1.78627373 1.86167977,1.92893333 C1.87887977,1.75838712 1.93607978,1.58864755 2.02727979,1.42893333" id="Fill-47" fill="#FEFEFE"></path>
                            <path d="M18.8408111,6.72404091 L20.2925604,6.72552576 L20.103133,6.81154091 L18.8387028,6.81185909 C18.1959991,6.81164697 17.6226573,6.41137424 17.3958083,5.80523788 L16.6275575,3.74501061 C16.2390048,2.70126818 15.2473838,2.00773788 14.1381217,2.00720758 L1.85970855,2.00826818 L1.85844359,2.00529848 C1.85802194,1.98122273 1.85918148,1.95290455 1.86023561,1.92458636 L14.1372783,1.92066212 C15.2465405,1.92119242 16.2410077,2.61345 16.6295604,3.65719242 L17.3979165,5.7174197 C17.6219194,6.32482879 18.1981074,6.72382879 18.8408111,6.72404091" id="Fill-49" fill="#00B4E0"></path>
                            <path d="M1.85896011,1.9216803 L1.86022507,1.92454394 C1.85917094,1.95286212 1.8580114,1.9811803 1.85843305,2.00536212 L1.85558689,2.00663485 L1.53418234,2.00652879 C0.726507123,2.0081197 0.0733675214,2.6626197 0.0666210826,3.4721803 L0.0682022792,3.39846818 C0.0680968661,2.58158939 0.725663818,1.92157424 1.5347094,1.92284697 L1.85896011,1.9216803 Z" id="Fill-51" fill="#00B4E0"></path>
                        </g>
                        <path d="M0.0664735043,29.3059788 L0.0678438746,29.3783121 C0.0665789174,30.1923273 0.722564672,30.8540394 1.53445641,30.8539333" id="Stroke-58" stroke="#57585A" stroke-width="0.650000058"></path>
                        <path d="" id="Stroke-60" stroke="#57585A" stroke-width="0.650000058"></path>
                        <path d="" id="Stroke-62" stroke="#57585A" stroke-width="0.650000058"></path>
                        <polyline id="Stroke-64" stroke="#57585A" stroke-width="0.650000058" points="34.2853256 29.3298682 34.2861256 29.2442682 34.2837256 29.1666682"></polyline>
                        <path d="M35.176933,30.8504121 C35.2755653,30.8564576 35.3831761,30.8556091 35.5001616,30.8479727 C36.5369223,30.7677909 37.2979881,30.0192152 37.2969318,29.1852606" id="Stroke-66" stroke="#000000" stroke-width="1.5"></path>
                        <path d="M34.2845689,29.2532136 C34.2838311,30.0913045 34.4439536,30.77985 35.1628709,30.84985" id="Stroke-68" stroke="#000000" stroke-width="1.5"></path>
                        <path d="M37.2706328,29.4227957 L37.4687699,7.87448815 C37.4697186,7.81498815 37.464975,7.75803361 37.460126,7.70118512 C37.4561203,7.66130633 37.4507442,7.61856391 37.4396759,7.57836694 C37.3387955,7.02971543 36.9589921,6.5834124 36.4577528,6.39027603 C36.2844536,6.31953361 36.0900719,6.27912452 35.8870462,6.28082149 L20.4570975,6.28029118 C19.869314,6.2794427 19.3501545,5.89974573 19.1680006,5.33942755 L18.9925932,4.78632149 L18.1720576,2.19366997 C17.8728952,1.456973 17.1590377,0.974503304 16.3682286,0.975351789 L4.34797216,0.973973001 C4.30991802,0.973866941 4.27186389,0.97376088 4.23349352,0.98076088 C3.44236817,1.0270033 2.78090093,1.57056391 2.5489921,2.30163967 C2.50081831,2.44853361 2.47067016,2.60476088 2.46171005,2.76183664 C2.46265877,2.77180633 2.29968,4.95610459 2.29968,4.95610459" id="Stroke-70" stroke="#000000" stroke-width="1.5"></path>
                        <path d="" id="Stroke-74" stroke="#57585A" stroke-width="0.650000058"></path>
                        <path d="" id="Stroke-76" stroke="#57585A" stroke-width="0.650000058"></path>
                        <path d="M34.3221867,29.3643161 L34.2841895,29.1212742 L34.2846111,27.5811682 C34.2825028,27.5612288 34.2844003,27.4422288 34.2844003,27.4422288 L34.2833462,22.4544106 L34.283557,11.3132742 C34.2851382,11.3090318 34.2828191,11.2267288 34.2828191,11.2267288 C34.2839786,10.4127136 33.6251467,9.7523803 32.8161011,9.75110758 L20.2926026,9.75227424 L18.8408533,9.75078939 C18.1980442,9.75047121 17.6218561,9.35157727 17.3978533,8.74416818 L16.6296026,6.68394091 C16.2410499,5.64019848 15.2465826,4.94794091 14.1373205,4.94741061 L1.86027778,4.95133485 L1.53476211,4.94953182 C0.725716524,4.94836515 0.0681495727,5.6083803 0.0681495727,6.42525909 C0.0679387464,6.50183485 0.0663575499,6.50597121 0.0676225071,6.50883485 L0.066462963,29.3059258 C0.0738418803,30.1160167 0.728773504,30.7677591 1.53370798,30.7674409 L33.0150157,30.844547 L35.1629131,30.84985 C35.1670242,30.8514409 35.3051154,30.8513348 35.3051154,30.8513348" id="Stroke-78" stroke="#000000" stroke-width="1.5"></path>
                    </g>
                </g>
            </g>
        </g>
    </g>
</svg>